<svg id="Layer_1" data-name="Layer 1" xmlns="http://www.w3.org/2000/svg" viewBox="0 0 1457.64 603.73"><defs><style>.cls-1{fill:#28538c;}.cls-2{fill:#656464;}</style></defs><path class="cls-1" d="M520,612.11,345.66,553.69q-10-136.5-20-272.64c.08,0,.14-.09.19-.09s.19,0,.22.06L520.38,611.68Z" transform="translate(-120.12 -280.96)"/><path class="cls-1" d="M122.92,611.67l194-330.36a1.48,1.48,0,0,1,.36.05c.05,0,.12.1.12.15-.08,1.76-.13,3.51-.26,5.26q-10.38,133-20.79,266.07L123.27,612Z" transform="translate(-120.12 -280.96)"/><path class="cls-1" d="M346.14,560.21l177,59.3L453.89,758.92l-95.14-27C354.56,674.79,350.36,617.7,346.14,560.21Z" transform="translate(-120.12 -280.96)"/><path class="cls-1" d="M295.81,559.38c-4.52,58-9,115.61-13.53,173.45L189.35,758,120.12,619.48Z" transform="translate(-120.12 -280.96)"/><path class="cls-1" d="M1256.11,734.51h-43c-2.4,0-2.14.23-3.08-2.11l-16.17-40.25c-.23-.59-.49-1.17-.79-1.87h-92.77q-9.21,22-18.48,44.13h-44.73a.52.52,0,0,1-.12-.16c0-.07-.1-.16-.08-.22a10.62,10.62,0,0,1,.36-1.13q43.5-106.87,87-213.8h44.23Zm-139.52-84.62h60.17l-30-73.58Z" transform="translate(-120.12 -280.96)"/><path class="cls-1" d="M846.69,575.4l-72.1,76.14L855.41,734l-.21.48h-2.08c-15.92,0-31.83,0-47.75,0a4.65,4.65,0,0,1-3.74-1.58q-19.51-20.16-39.17-40.2-14.31-14.7-28.58-29.43c-.53-.54-1.11-1.05-2.08-2v73H689.51V513.86c1.71-.46,36.83-.67,41.85-.23l.16.17a.9.9,0,0,1,.15.19,1,1,0,0,1,.05.24.85.85,0,0,1,0,.23c0,.16,0,.32,0,.48V638.77a1.93,1.93,0,0,0,0,.24,1.93,1.93,0,0,0,0,.24,1.93,1.93,0,0,0,0,.24.9.9,0,0,0,.08.23c0,.06.08.11.24.33a14.26,14.26,0,0,0,1.18-1q29.58-31.27,59.15-62.57a4.11,4.11,0,0,1,3.26-1.6c16.48.06,33,0,49.44,0h1.32Z" transform="translate(-120.12 -280.96)"/><path class="cls-1" d="M877.59,519h2.46c16.64,0,33.28-.08,49.91,0,12.56.07,25.08.82,37.41,3.48,16.11,3.48,28.78,11.92,37.29,26.23a57.59,57.59,0,0,1,7.49,22.34,71.18,71.18,0,0,1-1.53,28.06c-4.13,15.32-13.73,26.3-27.31,34A69,69,0,0,1,953.46,642c-7.81.51-15.63.76-23.45,1.12-2.94.13-5.88.21-9.12.33v91h-43.3ZM921,603.15h10.43a142.29,142.29,0,0,0,20.32-1c5.36-.76,10.2-2.62,13.93-6.73,4.11-4.54,5.39-10,4.95-16A19.23,19.23,0,0,0,957,561.88a50.21,50.21,0,0,0-14.12-2.37c-6.61-.27-13.24-.29-19.87-.4-.62,0-1.24.06-2,.11Z" transform="translate(-120.12 -280.96)"/><path class="cls-1" d="M1269.9,693.06l36.37-20.82,1.51,2.48c4.22,6.84,9,13.21,15.33,18.3,5.84,4.69,12.43,7.63,20,7.82,8.85.23,16.73-2.33,22.79-9.18,4.62-5.22,5.54-11.15,3.25-17.66a31.35,31.35,0,0,0-7.61-11.5,196.1,196.1,0,0,0-20-17.24c-10.28-8-20.51-16.08-30.19-24.83-6.77-6.11-13.41-12.37-18.88-19.72-5.1-6.87-9.1-14.33-10.81-22.78-3.09-15.34.19-29.26,10.17-41.35,10.47-12.7,24-20.1,40.32-22.34,15-2,29.51-.08,43.17,6.65a86.63,86.63,0,0,1,11.27,6.79c8.28,5.82,15.45,12.89,22.41,20.6l-32.1,26.88-1.93-2.38a65.92,65.92,0,0,0-15.5-14.54,30.89,30.89,0,0,0-17.62-5.36c-5.6.13-10.67,1.66-14.8,5.75-3.87,3.82-4.62,8.22-2.94,13.2a15.28,15.28,0,0,0,3.91,6.25c4.35,4.13,8.64,8.34,13.25,12.16,12.56,10.4,25.27,20.64,37.94,30.92a132.25,132.25,0,0,1,20.33,20c7,8.75,11.66,18.52,13,29.71,2.91,24.89-7,46.32-29.6,59.55a69.71,69.71,0,0,1-26.23,8.65,95.71,95.71,0,0,1-30.31-.56A70.76,70.76,0,0,1,1290,720.32a100.62,100.62,0,0,1-19.58-26.19C1270.23,693.85,1270.13,693.56,1269.9,693.06Z" transform="translate(-120.12 -280.96)"/><path class="cls-1" d="M1541.67,575.16l-2.25-2.77a67.55,67.55,0,0,0-13.6-13.1c-5.78-4-12.07-6.58-19.22-6.42-5.35.13-10.27,1.52-14.29,5.27-4.57,4.28-5.64,9.38-2.82,15a24.72,24.72,0,0,0,4.16,5.8c6.95,7.21,14.78,13.45,22.51,19.78,11.14,9.12,22.44,18,33.48,27.27a92,92,0,0,1,19.88,22.61c6.89,11.26,9.13,23.55,7.94,36.58a55,55,0,0,1-15.64,34.19,63.2,63.2,0,0,1-31.22,17.84c-18.32,4.39-36.45,3.89-54.16-3-11.91-4.65-21.52-12.44-29.54-22.27a109.25,109.25,0,0,1-11.52-17.37c-.23-.41-.42-.84-.73-1.46l36.36-20.8c.42.65.82,1.23,1.18,1.82,4.23,6.93,9,13.43,15.33,18.61a33.47,33.47,0,0,0,15.8,7.61c9.28,1.51,17.83-.12,25.12-6.44,6.87-6,8.47-13.91,4.56-22.09a38.23,38.23,0,0,0-8.23-10.82c-8.16-7.94-17.28-14.73-26.18-21.77-11.55-9.13-22.88-18.51-33.2-29-7.35-7.51-13.61-15.78-17.07-25.79-6.07-17.58-3.23-33.8,8.59-48.14,10.36-12.55,23.85-19.76,40-22a74.6,74.6,0,0,1,42.76,6.36,82.71,82.71,0,0,1,17.57,11.58A163.94,163.94,0,0,1,1573,547.33c.21.23.38.5.75,1Z" transform="translate(-120.12 -280.96)"/><path class="cls-1" d="M578.07,575.05h36.07v18.66l.45.12c.44-.7.9-1.39,1.32-2.11,4.9-8.45,11.73-14.73,20.91-18.21,10.38-3.94,20.66-3.4,30.75,1.18a6.37,6.37,0,0,1,.78.51c-4.35,11.37-8.69,22.75-13.1,34.29-1.88-.73-3.55-1.44-5.26-2-3.2-1.08-6.43-1.87-9.87-1.16a17,17,0,0,0-8.53,4.59c-5,4.78-7.56,10.79-9,17.4a120.58,120.58,0,0,0-2.48,20.92c-.18,4.87-.34,9.74-.33,14.61q0,33.82.16,67.65v2.91H578.07Z" transform="translate(-120.12 -280.96)"/><path class="cls-1" d="M351.76,725.29l-27.93-30.38-2.19,1.8-2.2-1.83-30.39,31.79a17.07,17.07,0,0,1-.09-1.92q.81-10.75,1.64-21.51.86-11,1.72-22,1.13-14.22,2.25-28.43c.54-6.85,1.05-13.7,1.59-20.55q1.13-14.34,2.26-28.67,1-13.26,2.05-26.53c.49-6.37.95-12.74,1.49-19.11a3.57,3.57,0,0,1,.92-2.07c6.11-6.11,12.26-12.16,18.53-18.35.58.54,1.13,1,1.6,1.49q7.82,8.44,15.62,16.9a4.88,4.88,0,0,1,1.43,3.15c.36,5.66.8,11.32,1.22,17l2.19,29.64,1.65,22.47,2.19,29.88L349,680.51q1.1,14.94,2.2,29.88c.36,4.92.7,9.83,1.06,14.74Z" transform="translate(-120.12 -280.96)"/><path class="cls-1" d="M321.55,312.7c.77,2,17.12,221.32,17.47,234.53a68,68,0,0,1-5.2-5.37c-1.66-1.73-3.25-3.53-4.87-5.29s-3.37-3.62-5.1-5.47l-2.21,1.71L319.52,531l-16.15,15.85c-.29-.12-.39-.14-.43-.19a.43.43,0,0,1,0-.23c.05-1,.07-1.92.15-2.87q9-115.06,18-230.14a1.45,1.45,0,0,1,.13-.45.38.38,0,0,1,.17-.16A.58.58,0,0,1,321.55,312.7Z" transform="translate(-120.12 -280.96)"/><path class="cls-2" d="M1097.57,863.31V861q0-24.84,0-49.68a20.92,20.92,0,0,1,.51-4.74,5.19,5.19,0,0,1,5.21-4.26,5.31,5.31,0,0,1,5.57,4.12,16.46,16.46,0,0,1,.54,4.25q.06,32.16,0,64.32a19,19,0,0,1-.84,5.4,5.4,5.4,0,0,1-4.85,3.88,8.89,8.89,0,0,1-8.72-3.34,75.07,75.07,0,0,1-4.37-6.2q-15.8-25-31.53-50c-.21-.32-.43-.63-.94-1.38-.05,1.25-.12,2.07-.12,2.88q0,24.84,0,49.68a16.43,16.43,0,0,1-.47,4,5.79,5.79,0,0,1-11.31-.14,20.1,20.1,0,0,1-.45-4.52q0-30.84,0-61.67a36.57,36.57,0,0,1,.3-4.31,7.43,7.43,0,0,1,5.17-6.46,6.94,6.94,0,0,1,8.07,2,26.79,26.79,0,0,1,2.49,3.45q17.34,27.12,34.65,54.25c.21.33.44.64.67,1Z" transform="translate(-120.12 -280.96)"/><path class="cls-2" d="M1360.91,846.85c.52.33.95.65,1.41.89a31.08,31.08,0,0,1,10.33,8.73,75.06,75.06,0,0,1,10.62,17.95c.39,1,.75,1.92,1,2.91a5,5,0,0,1-2.45,6.25,7,7,0,0,1-7.83-.8,14.23,14.23,0,0,1-2.55-3.08c-3.34-5.57-6.52-11.24-9.91-16.78a108,108,0,0,0-6.39-9.41,14.54,14.54,0,0,0-11.77-5.74c-2.84-.06-5.68,0-8.79,0v2.8c0,8,0,16,0,24a26.37,26.37,0,0,1-.36,4.53,6,6,0,0,1-6,5.28c-3.43.11-5.62-1.51-6.45-4.92a15.12,15.12,0,0,1-.42-3.55q0-31.92,0-63.83c0-.4,0-.8,0-1.2.28-4.49,2.31-6.69,6.61-7.16a16.27,16.27,0,0,1,1.85-.05c9.6,0,19.19-.07,28.78,0a45.08,45.08,0,0,1,9,.92c10.35,2.25,16.5,11.29,15.64,22.18-.62,7.93-4.42,13.35-11.38,16.34C1368.4,844.64,1364.71,845.58,1360.91,846.85Zm-26.22-8.22a12.07,12.07,0,0,0,1.26.15c5.26,0,10.51,0,15.77,0a32.21,32.21,0,0,0,9.84-1.34c5.4-1.75,8.12-5.21,8.31-11,.23-7.19-4.31-11.71-9.73-12.64a39.39,39.39,0,0,0-6.22-.55c-5.8-.07-11.6,0-17.4,0-.59,0-1.18.1-1.83.16Z" transform="translate(-120.12 -280.96)"/><path class="cls-2" d="M514.47,846.8c.55.35,1,.68,1.43.91a31.28,31.28,0,0,1,10.49,8.9A75.14,75.14,0,0,1,537.14,875c.27.66.51,1.34.72,2,1.09,3.45-.57,6.45-4,7.17a6.78,6.78,0,0,1-7-2.16,21.74,21.74,0,0,1-2.21-3.07c-3.58-6.06-7.07-12.2-10.71-18.23a67.48,67.48,0,0,0-5.18-7.35,14.63,14.63,0,0,0-11.36-5.61c-2.92-.09-5.85,0-9,0,0,1-.11,1.83-.11,2.67,0,8.08,0,16.15,0,24.22a26.8,26.8,0,0,1-.32,4.3,6,6,0,0,1-6.11,5.42c-3.41.09-5.59-1.57-6.39-5a16.68,16.68,0,0,1-.42-3.79q0-31.55,0-63.08c0-.64,0-1.28.06-1.91.43-4.46,2.52-6.57,6.85-6.92.62,0,1.24,0,1.86,0,9.43,0,18.87-.08,28.3,0a47.29,47.29,0,0,1,9.43,1c10.1,2.23,16.32,11.53,15.42,22.15-.7,8.23-4.78,13.66-12,16.64C521.59,844.8,518.12,845.64,514.47,846.8Zm-26.18-8.19a9.66,9.66,0,0,0,1.23.17c5.33,0,10.67.12,16,0a46.4,46.4,0,0,0,8.94-1.1c5.67-1.31,8.61-5.07,9-10.93.46-6.48-3.7-12-9.91-13a45.15,45.15,0,0,0-6.46-.53c-5.57-.08-11.14,0-16.71,0-.67,0-1.35.07-2.12.11Z" transform="translate(-120.12 -280.96)"/><path class="cls-2" d="M1028.86,842.91a51,51,0,0,1-3,19c-4.17,11-11.77,18.19-22.94,21.08a44.35,44.35,0,0,1-24-.33c-10.93-3.25-18.43-10.52-22.17-21.65a54,54,0,0,1-.1-35.25c4.16-12.33,12.66-19.81,25-22.5a44.92,44.92,0,0,1,20.24.25c13.9,3.33,22.25,12.43,25.68,26.56A48.56,48.56,0,0,1,1028.86,842.91Zm-13.46.43a43.49,43.49,0,0,0-2.34-15.05c-4.48-12.37-15.28-17.64-27.36-15.11-7.35,1.54-12.48,6.23-15.32,13.31-4.31,10.72-4.22,21.62-.43,32.48a23.59,23.59,0,0,0,7.43,10.51c9.41,7.74,26.46,6.45,33.74-7C1014.35,856.51,1015.39,850.05,1015.4,843.34Z" transform="translate(-120.12 -280.96)"/><path class="cls-2" d="M1457.82,868.15V852.23h-2.36c-4.33,0-8.66,0-13-.09a12.11,12.11,0,0,1-2.74-.42c-2.38-.62-3.2-1.59-3.3-3.67a4.41,4.41,0,0,1,3-4.83,4.92,4.92,0,0,1,1.81-.37q11.25,0,22.5.14a7.51,7.51,0,0,1,1.6.3,5.15,5.15,0,0,1,4.08,4.38,26.33,26.33,0,0,1,.43,4.53c.05,4.55-.14,9.12.06,13.67.23,5.39-2.08,8.78-6.61,11.26-10,5.5-20.63,8.07-32,7.09a38.75,38.75,0,0,1-18.75-6.35A34.07,34.07,0,0,1,1399,859a52.83,52.83,0,0,1,0-31.39c3.42-11.18,10.62-18.78,21.37-22.59a46.43,46.43,0,0,1,27.64-1.28c6.37,1.63,12,4.75,16,10.36,1.71,2.4,3.15,5,3.19,8.08a5.94,5.94,0,0,1-3.87,5.92,5.86,5.86,0,0,1-6.87-2c-1.08-1.47-2-3-3-4.55-4.15-6.49-10-9.36-17.5-9.35-6.19,0-11.78,1.54-16.54,5.74a25.25,25.25,0,0,0-7.75,13.37,47.18,47.18,0,0,0,.68,26.23c3.25,10,10,15.66,20.22,16.82,8.12.92,15.63-1.16,22.82-4.87C1456.15,869.09,1456.89,868.66,1457.82,868.15Z" transform="translate(-120.12 -280.96)"/><path class="cls-2" d="M232.41,846.63v2.67q0,12.72,0,25.43a24.28,24.28,0,0,1-.27,3.82c-.56,3.61-2.94,5.78-6.3,5.83s-5.57-1.82-6.31-5.43a17.7,17.7,0,0,1-.36-3.56q0-32,0-64.06a17.87,17.87,0,0,1,.55-4.49,5.79,5.79,0,0,1,5.84-4.53,6,6,0,0,1,6.2,4.39,17.83,17.83,0,0,1,.62,4.72c.07,7.19,0,14.39,0,21.59v2.74h37.73v-2.61c0-7.2,0-14.4,0-21.59a19.62,19.62,0,0,1,.55-4.73,5.84,5.84,0,0,1,5.87-4.51,6,6,0,0,1,6.16,4.47,12.37,12.37,0,0,1,.53,3.53q0,33.11,0,66.21a11.72,11.72,0,0,1-.44,3.06,6,6,0,0,1-6.14,4.8,5.78,5.78,0,0,1-6.06-4.84,19.32,19.32,0,0,1-.47-4.5c0-8.55,0-17.11,0-25.67v-2.74Z" transform="translate(-120.12 -280.96)"/><path class="cls-2" d="M719.32,836.78H722q15.9,0,31.8,0a11.07,11.07,0,0,1,3.19.44,4.19,4.19,0,0,1,3,4.12,4.26,4.26,0,0,1-2.83,4.47,12.67,12.67,0,0,1-3.88.53c-10.44,0-20.89,0-31.33,0h-2.63v26.31c.77,0,1.59.09,2.4.09q18,0,36,0a12.4,12.4,0,0,1,3.64.5,4.89,4.89,0,0,1,0,9.12,11.27,11.27,0,0,1-3.41.51q-21.83,0-43.64,0a15.14,15.14,0,0,1-2.77-.21c-3.23-.6-4.88-2.37-5.33-5.73a30.54,30.54,0,0,1-.28-4.06q0-29.62,0-59.27a29.85,29.85,0,0,1,.35-4.53,5.63,5.63,0,0,1,4.6-5.06,15.83,15.83,0,0,1,3.2-.4q21.48,0,42.94,0a10.66,10.66,0,0,1,3,.42,4.72,4.72,0,0,1-.23,9,20.7,20.7,0,0,1-4.37.43q-16.71,0-33.42,0h-2.64Z" transform="translate(-120.12 -280.96)"/><path class="cls-2" d="M1260.66,813.57v23.21h2.55q15.9,0,31.8,0a11.45,11.45,0,0,1,3.19.41,4.24,4.24,0,0,1,3.12,4.25,4.32,4.32,0,0,1-3.16,4.47,13.68,13.68,0,0,1-3.66.43c-10.37,0-20.73,0-31.1,0h-2.69v26.4h2.51q18,0,36,0a11.31,11.31,0,0,1,3.42.48c2.07.67,3,2.23,3,4.56s-.89,3.88-3,4.57a10.94,10.94,0,0,1-3.41.52q-21.71,0-43.4,0a19.78,19.78,0,0,1-3.9-.46c-2.49-.5-3.86-2.26-4.34-4.73a19.33,19.33,0,0,1-.34-3.8q0-30.72,0-61.43a20.34,20.34,0,0,1,.53-4.25,5.16,5.16,0,0,1,4.08-4.12,14.82,14.82,0,0,1,3.43-.46q21.48,0,42.94,0a10.51,10.51,0,0,1,2.74.36,4.73,4.73,0,0,1-.4,9.19,22.31,22.31,0,0,1-3.92.34q-16.71,0-33.42,0Z" transform="translate(-120.12 -280.96)"/><path class="cls-2" d="M1501.54,813.57v23.21h2.6q15.9,0,31.8,0a11.06,11.06,0,0,1,3.19.43,4.62,4.62,0,0,1,0,8.66,14.54,14.54,0,0,1-3.89.47c-10.29,0-20.58,0-30.87,0h-2.5c-.51,1.79-.68,21.77-.23,26.4H1504q17.88,0,35.74,0a12.86,12.86,0,0,1,3.44.41,4.47,4.47,0,0,1,3.31,4.62,4.38,4.38,0,0,1-3.24,4.66,10.73,10.73,0,0,1-3.19.44q-21.7,0-43.4,0a18.45,18.45,0,0,1-4.12-.52,5.15,5.15,0,0,1-4-4.2,15.68,15.68,0,0,1-.45-3.54q0-31.32,0-62.63c0-.32,0-.64,0-1,.24-4.79,2.48-7.13,7.11-7.4.54,0,1.08,0,1.62,0q20.9,0,41.78,0a13.21,13.21,0,0,1,3.43.42c2.2.62,3.23,2.24,3.16,4.67a4.28,4.28,0,0,1-3.32,4.34,20,20,0,0,1-4.37.44c-11.06,0-22.13,0-33.19,0Z" transform="translate(-120.12 -280.96)"/><path class="cls-2" d="M316.81,813.57v23.21h2.55q16,0,32,0a11,11,0,0,1,3,.37,4.13,4.13,0,0,1,3.18,4.4,4.09,4.09,0,0,1-3.19,4.4,14,14,0,0,1-3.66.41c-10.37,0-20.73,0-31.1,0h-2.7v26.4h2.51q18,0,36,0a12.3,12.3,0,0,1,3.2.39,4.61,4.61,0,0,1,3.49,4.75,4.72,4.72,0,0,1-3.62,4.68,13.34,13.34,0,0,1-3.22.32q-21.47,0-42.93,0a21.78,21.78,0,0,1-2.55-.13c-3.63-.41-5.56-2.35-6-6.11a28.69,28.69,0,0,1-.14-3.35q0-30.11,0-60.22a23.72,23.72,0,0,1,.55-5,5.09,5.09,0,0,1,3.92-4,14.67,14.67,0,0,1,3.66-.5q21.34,0,42.7,0a11.05,11.05,0,0,1,3,.38,4.73,4.73,0,0,1-.33,9.13,19.79,19.79,0,0,1-3.92.36q-16.81,0-33.64,0Z" transform="translate(-120.12 -280.96)"/><path class="cls-2" d="M601.73,863.37H567.39c-1,2.64-1.87,5.26-2.86,7.85-1.23,3.28-2.4,6.59-3.83,9.77-1.33,3-3.21,3.83-6.21,3.29a6.41,6.41,0,0,1-5-5.32,11.24,11.24,0,0,1,.72-4.43c2.16-6,4.44-11.93,6.7-17.88q8.24-21.63,16.5-43.26a62.61,62.61,0,0,1,2.68-6.1c3.39-6.7,13.32-6.5,16.66-.57a52,52,0,0,1,3,6.46q11.19,28.55,22.3,57.12a48.7,48.7,0,0,1,2,6.13,6.35,6.35,0,0,1-4,7.61,5.47,5.47,0,0,1-7.33-3.19c-2.17-5-4.06-10.19-6.07-15.29C602.32,864.83,602,864.1,601.73,863.37Zm-3.23-9.6L584.41,813.9c-4.71,13.61-9.23,26.64-13.82,39.87Z" transform="translate(-120.12 -280.96)"/><path class="cls-2" d="M1163.37,884.7a51,51,0,0,1-13.74-2.42c-8.91-3.12-14.77-9.65-18.61-18.27-3.47-7.8-4.48-16-3.92-24.56a44.61,44.61,0,0,1,4.31-17.27c5.75-11.57,15-17.92,27.41-19.53a34.85,34.85,0,0,1,24.61,5.52,27.84,27.84,0,0,1,8.88,9.3,18.08,18.08,0,0,1,2.5,7.4,6,6,0,0,1-3.62,6.32c-2.42.88-4.83,0-6.43-2.39-.83-1.25-1.46-2.64-2.28-3.89a58,58,0,0,0-4.16-6c-4.4-5.15-10.16-6.69-16.57-6.25-7.86.53-13.46,4.68-17.24,11.64a33.32,33.32,0,0,0-3.63,12.3,57.29,57.29,0,0,0,.78,19.28,28.18,28.18,0,0,0,3.29,8.41c3.75,6.25,9.32,9.38,16.33,9.88,10.61.76,18.36-4.45,22.13-14.79.43-1.19.9-2.38,1.42-3.53,1-2.25,2.73-3.49,5.71-2.89a5.29,5.29,0,0,1,4.46,5.33,21.2,21.2,0,0,1-1.14,6.54c-3.62,9.86-10.68,15.88-20.43,18.45C1170.17,884.11,1166.73,884.24,1163.37,884.7Z" transform="translate(-120.12 -280.96)"/><path class="cls-2" d="M908.41,884.7a46.62,46.62,0,0,1-15.26-3c-7.89-3.24-13.19-9.29-16.79-17.05-3.74-8.06-4.81-16.62-4.21-25.45a44.72,44.72,0,0,1,4.1-16.61c5.68-11.7,14.92-18.25,27.4-19.92,10-1.34,19.21.87,27.29,7.31a24.35,24.35,0,0,1,7.91,10.73,17.93,17.93,0,0,1,1,4.65,5.72,5.72,0,0,1-3.6,5.83,5.19,5.19,0,0,1-6.29-2.22c-.84-1.23-1.56-2.56-2.28-3.88a28.37,28.37,0,0,0-6.31-8.21,17.12,17.12,0,0,0-9.7-4.15c-4.7-.44-9.26,0-13.49,2.4-5,2.91-8.27,7.38-10.23,12.86a46.28,46.28,0,0,0-2.34,19.11,53.31,53.31,0,0,0,1.8,11.06c2.23,7.66,6.79,13.3,14.61,15.24,7.45,1.85,14.46.93,20.45-4.5a23.62,23.62,0,0,0,6-9.55,32.17,32.17,0,0,1,1.55-3.73c1.28-2.45,3.08-3.27,5.58-2.69a5.39,5.39,0,0,1,4.46,5.1,18.21,18.21,0,0,1-.73,5.41c-3.32,10.65-10.58,17-20.85,19.8C915.21,884.12,911.77,884.23,908.41,884.7Z" transform="translate(-120.12 -280.96)"/><path class="cls-2" d="M658.09,870.82q1.56-4.74,3.11-9.47,8.58-26.34,17.15-52.67a21.26,21.26,0,0,1,1.32-3.32,5.45,5.45,0,0,1,6.73-2.78,5.93,5.93,0,0,1,4.47,5.94,21.32,21.32,0,0,1-1.2,5.33c-4.59,13-9.25,25.92-13.88,38.88-2.56,7.19-5.09,14.4-7.7,21.57a43.34,43.34,0,0,1-2.42,5.43c-3.34,6.31-13.22,6.25-16.43,0a51.87,51.87,0,0,1-2.86-6.53q-10.54-29.57-21-59.16a28.78,28.78,0,0,1-1.18-4.37,6.27,6.27,0,0,1,4-7c3.09-1.11,6.12-.07,7.5,2.79a50.22,50.22,0,0,1,2.5,6.18q9.38,28.58,18.68,57.19c.22.66.46,1.31.69,2Z" transform="translate(-120.12 -280.96)"/><path class="cls-2" d="M423.5,814.64c-1,0-1.75-.1-2.5-.11-5,0-10.06,0-15.08,0a22.18,22.18,0,0,1-4.15-.39,4.65,4.65,0,0,1-3.91-4.66c-.13-2.69,1-4.53,3.41-5.3a10,10,0,0,1,3-.48q25.88,0,51.74,0a10.66,10.66,0,0,1,3,.44,5.21,5.21,0,0,1-.26,10,19.85,19.85,0,0,1-4.14.42c-5.1,0-10.21,0-15.31,0-.75,0-1.5.08-2.51.13v3q0,28.54,0,57.08a24.64,24.64,0,0,1-.32,4.29,6.29,6.29,0,0,1-12.43.2,21.94,21.94,0,0,1-.41-4.28q0-28.65,0-57.32Z" transform="translate(-120.12 -280.96)"/><path class="cls-2" d="M180.61,814.53v3.26q0,28.79,0,57.58a17.41,17.41,0,0,1-.59,4.72,5.69,5.69,0,0,1-5.77,4.29,5.78,5.78,0,0,1-6-4.26,20.66,20.66,0,0,1-.63-5.44q-.06-28.54,0-57.1v-3.05H165c-5,0-10.06,0-15.09,0a21.44,21.44,0,0,1-4.15-.38,5.21,5.21,0,0,1-.31-10,10.59,10.59,0,0,1,3-.42q25.76,0,51.52,0a10.72,10.72,0,0,1,3,.43,5.19,5.19,0,0,1-.28,10,20.55,20.55,0,0,1-4.14.42c-5.11,0-10.21,0-15.32,0Z" transform="translate(-120.12 -280.96)"/><path class="cls-2" d="M793,872.3h2.79c10.29,0,20.58,0,30.87,0a12.8,12.8,0,0,1,3.65.48,5,5,0,0,1,3.53,5.07,4.8,4.8,0,0,1-3.68,4.65,13.16,13.16,0,0,1-3.43.42q-19.15,0-38.3,0a15.34,15.34,0,0,1-3.45-.32c-3-.68-4.53-2.37-4.94-5.55a38.22,38.22,0,0,1-.3-4.78q0-29.52,0-59a42.29,42.29,0,0,1,.28-4.78c.4-3.62,2.73-6,6-6.16s5.87,1.78,6.67,5.36A15.45,15.45,0,0,1,793,811q0,29.16,0,58.32Z" transform="translate(-120.12 -280.96)"/><path class="cls-2" d="M1213.1,843.23c0-10.71,0-21.42,0-32.13a16.39,16.39,0,0,1,.64-4.69,5.84,5.84,0,0,1,5.93-4.1,6,6,0,0,1,6,4.44,15.94,15.94,0,0,1,.58,4.24q0,32.37,0,64.73a16.12,16.12,0,0,1-.66,4.47,5.81,5.81,0,0,1-5.63,4.17c-2.73.09-4.93-1-5.94-3.66a14.55,14.55,0,0,1-.86-4.87C1213.07,865,1213.1,854.1,1213.1,843.23Z" transform="translate(-120.12 -280.96)"/></svg>