<svg id="Layer_1" data-name="Layer 1" xmlns="http://www.w3.org/2000/svg" viewBox="0 0 1457.64 477.95"><defs><style>.cls-1{fill:#28538c;}</style></defs><path class="cls-1" d="M520,612.11,345.66,553.69q-10-136.5-20-272.64c.08,0,.14-.09.19-.09s.19,0,.22.06L520.38,611.68Z" transform="translate(-120.12 -280.96)"/><path class="cls-1" d="M122.92,611.67l194-330.36a1.48,1.48,0,0,1,.36.05c.05,0,.12.1.12.15-.08,1.76-.13,3.51-.26,5.26q-10.38,133-20.79,266.07L123.27,612Z" transform="translate(-120.12 -280.96)"/><path class="cls-1" d="M346.14,560.21l177,59.3L453.89,758.92l-95.14-27C354.56,674.79,350.36,617.7,346.14,560.21Z" transform="translate(-120.12 -280.96)"/><path class="cls-1" d="M295.81,559.38c-4.52,58-9,115.61-13.53,173.45L189.35,758,120.12,619.48Z" transform="translate(-120.12 -280.96)"/><path class="cls-1" d="M1256.11,734.51h-43c-2.4,0-2.14.23-3.08-2.11l-16.17-40.25c-.23-.59-.49-1.17-.79-1.87h-92.77q-9.21,22-18.48,44.13h-44.73a.52.52,0,0,1-.12-.16c0-.07-.1-.16-.08-.22a10.62,10.62,0,0,1,.36-1.13q43.5-106.87,87-213.8h44.23Zm-139.52-84.62h60.17l-30-73.58Z" transform="translate(-120.12 -280.96)"/><path class="cls-1" d="M846.69,575.4l-72.1,76.14L855.41,734l-.21.48h-2.08c-15.92,0-31.83,0-47.75,0a4.65,4.65,0,0,1-3.74-1.58q-19.51-20.16-39.17-40.2-14.31-14.7-28.58-29.43c-.53-.54-1.11-1.05-2.08-2v73H689.51V513.86c1.71-.46,36.83-.67,41.85-.23l.16.17a.9.9,0,0,1,.15.19,1,1,0,0,1,.05.24.85.85,0,0,1,0,.23c0,.16,0,.32,0,.48V638.77a1.93,1.93,0,0,0,0,.24,1.93,1.93,0,0,0,0,.24,1.93,1.93,0,0,0,0,.24.9.9,0,0,0,.08.23c0,.06.08.11.24.33a14.26,14.26,0,0,0,1.18-1q29.58-31.27,59.15-62.57a4.11,4.11,0,0,1,3.26-1.6c16.48.06,33,0,49.44,0h1.32Z" transform="translate(-120.12 -280.96)"/><path class="cls-1" d="M877.59,519h2.46c16.64,0,33.28-.08,49.91,0,12.56.07,25.08.82,37.41,3.48,16.11,3.48,28.78,11.92,37.29,26.23a57.59,57.59,0,0,1,7.49,22.34,71.18,71.18,0,0,1-1.53,28.06c-4.13,15.32-13.73,26.3-27.31,34A69,69,0,0,1,953.46,642c-7.81.51-15.63.76-23.45,1.12-2.94.13-5.88.21-9.12.33v91h-43.3ZM921,603.15h10.43a142.29,142.29,0,0,0,20.32-1c5.36-.76,10.2-2.62,13.93-6.73,4.11-4.54,5.39-10,4.95-16A19.23,19.23,0,0,0,957,561.88a50.21,50.21,0,0,0-14.12-2.37c-6.61-.27-13.24-.29-19.87-.4-.62,0-1.24.06-2,.11Z" transform="translate(-120.12 -280.96)"/><path class="cls-1" d="M1269.9,693.06l36.37-20.82,1.51,2.48c4.22,6.84,9,13.21,15.33,18.3,5.84,4.69,12.43,7.63,20,7.82,8.85.23,16.73-2.33,22.79-9.18,4.62-5.22,5.54-11.15,3.25-17.66a31.35,31.35,0,0,0-7.61-11.5,196.1,196.1,0,0,0-20-17.24c-10.28-8-20.51-16.08-30.19-24.83-6.77-6.11-13.41-12.37-18.88-19.72-5.1-6.87-9.1-14.33-10.81-22.78-3.09-15.34.19-29.26,10.17-41.35,10.47-12.7,24-20.1,40.32-22.34,15-2,29.51-.08,43.17,6.65a86.63,86.63,0,0,1,11.27,6.79c8.28,5.82,15.45,12.89,22.41,20.6l-32.1,26.88-1.93-2.38a65.92,65.92,0,0,0-15.5-14.54,30.89,30.89,0,0,0-17.62-5.36c-5.6.13-10.67,1.66-14.8,5.75-3.87,3.82-4.62,8.22-2.94,13.2a15.28,15.28,0,0,0,3.91,6.25c4.35,4.13,8.64,8.34,13.25,12.16,12.56,10.4,25.27,20.64,37.94,30.92a132.25,132.25,0,0,1,20.33,20c7,8.75,11.66,18.52,13,29.71,2.91,24.89-7,46.32-29.6,59.55a69.71,69.71,0,0,1-26.23,8.65,95.71,95.71,0,0,1-30.31-.56A70.76,70.76,0,0,1,1290,720.32a100.62,100.62,0,0,1-19.58-26.19C1270.23,693.85,1270.13,693.56,1269.9,693.06Z" transform="translate(-120.12 -280.96)"/><path class="cls-1" d="M1541.67,575.16l-2.25-2.77a67.55,67.55,0,0,0-13.6-13.1c-5.78-4-12.07-6.58-19.22-6.42-5.35.13-10.27,1.52-14.29,5.27-4.57,4.28-5.64,9.38-2.82,15a24.72,24.72,0,0,0,4.16,5.8c6.95,7.21,14.78,13.45,22.51,19.78,11.14,9.12,22.44,18,33.48,27.27a92,92,0,0,1,19.88,22.61c6.89,11.26,9.13,23.55,7.94,36.58a55,55,0,0,1-15.64,34.19,63.2,63.2,0,0,1-31.22,17.84c-18.32,4.39-36.45,3.89-54.16-3-11.91-4.65-21.52-12.44-29.54-22.27a109.25,109.25,0,0,1-11.52-17.37c-.23-.41-.42-.84-.73-1.46l36.36-20.8c.42.65.82,1.23,1.18,1.82,4.23,6.93,9,13.43,15.33,18.61a33.47,33.47,0,0,0,15.8,7.61c9.28,1.51,17.83-.12,25.12-6.44,6.87-6,8.47-13.91,4.56-22.09a38.23,38.23,0,0,0-8.23-10.82c-8.16-7.94-17.28-14.73-26.18-21.77-11.55-9.13-22.88-18.51-33.2-29-7.35-7.51-13.61-15.78-17.07-25.79-6.07-17.58-3.23-33.8,8.59-48.14,10.36-12.55,23.85-19.76,40-22a74.6,74.6,0,0,1,42.76,6.36,82.71,82.71,0,0,1,17.57,11.58A163.94,163.94,0,0,1,1573,547.33c.21.23.38.5.75,1Z" transform="translate(-120.12 -280.96)"/><path class="cls-1" d="M578.07,575.05h36.07v18.66l.45.12c.44-.7.9-1.39,1.32-2.11,4.9-8.45,11.73-14.73,20.91-18.21,10.38-3.94,20.66-3.4,30.75,1.18a6.37,6.37,0,0,1,.78.51c-4.35,11.37-8.69,22.75-13.1,34.29-1.88-.73-3.55-1.44-5.26-2-3.2-1.08-6.43-1.87-9.87-1.16a17,17,0,0,0-8.53,4.59c-5,4.78-7.56,10.79-9,17.4a120.58,120.58,0,0,0-2.48,20.92c-.18,4.87-.34,9.74-.33,14.61q0,33.82.16,67.65v2.91H578.07Z" transform="translate(-120.12 -280.96)"/><path class="cls-1" d="M351.76,725.29l-27.93-30.38-2.19,1.8-2.2-1.83-30.39,31.79a17.07,17.07,0,0,1-.09-1.92q.81-10.75,1.64-21.51.86-11,1.72-22,1.13-14.22,2.25-28.43c.54-6.85,1.05-13.7,1.59-20.55q1.13-14.34,2.26-28.67,1-13.26,2.05-26.53c.49-6.37.95-12.74,1.49-19.11a3.57,3.57,0,0,1,.92-2.07c6.11-6.11,12.26-12.16,18.53-18.35.58.54,1.13,1,1.6,1.49q7.82,8.44,15.62,16.9a4.88,4.88,0,0,1,1.43,3.15c.36,5.66.8,11.32,1.22,17l2.19,29.64,1.65,22.47,2.19,29.88L349,680.51q1.1,14.94,2.2,29.88c.36,4.92.7,9.83,1.06,14.74Z" transform="translate(-120.12 -280.96)"/><path class="cls-1" d="M321.55,312.7c.77,2,17.12,221.32,17.47,234.53a68,68,0,0,1-5.2-5.37c-1.66-1.73-3.25-3.53-4.87-5.29s-3.37-3.62-5.1-5.47l-2.21,1.71L319.52,531l-16.15,15.85c-.29-.12-.39-.14-.43-.19a.43.43,0,0,1,0-.23c.05-1,.07-1.92.15-2.87q9-115.06,18-230.14a1.45,1.45,0,0,1,.13-.45.38.38,0,0,1,.17-.16A.58.58,0,0,1,321.55,312.7Z" transform="translate(-120.12 -280.96)"/></svg>